<svg width="25" height="24" viewBox="0 0 25 24" fill="none" xmlns="http://www.w3.org/2000/svg">
<g id="lets-icons:date-range-duotone">
<g id="Group">
<path id="Vector" d="M3.125 10C3.125 8.114 3.125 7.172 3.711 6.586C4.297 6 5.239 6 7.125 6H17.125C19.011 6 19.953 6 20.539 6.586C21.125 7.172 21.125 8.114 21.125 10H3.125Z" fill="#95C7BB"/>
<path id="Vector_2" d="M19.125 6H5.125C4.02043 6 3.125 6.89543 3.125 8V19C3.125 20.1046 4.02043 21 5.125 21H19.125C20.2296 21 21.125 20.1046 21.125 19V8C21.125 6.89543 20.2296 6 19.125 6Z" stroke="#95C7BB" stroke-width="1.2"/>
<path id="Vector_3" d="M7.125 3V6M17.125 3V6" stroke="#95C7BB" stroke-width="1.2" stroke-linecap="round"/>
<path id="Vector_4" d="M10.625 12H7.625C7.34886 12 7.125 12.2239 7.125 12.5V13.5C7.125 13.7761 7.34886 14 7.625 14H10.625C10.9011 14 11.125 13.7761 11.125 13.5V12.5C11.125 12.2239 10.9011 12 10.625 12Z" fill="#95C7BB"/>
<path id="Vector_5" d="M10.625 16H7.625C7.34886 16 7.125 16.2239 7.125 16.5V17.5C7.125 17.7761 7.34886 18 7.625 18H10.625C10.9011 18 11.125 17.7761 11.125 17.5V16.5C11.125 16.2239 10.9011 16 10.625 16Z" fill="#95C7BB"/>
<path id="Vector_6" d="M16.625 12H13.625C13.3489 12 13.125 12.2239 13.125 12.5V13.5C13.125 13.7761 13.3489 14 13.625 14H16.625C16.9011 14 17.125 13.7761 17.125 13.5V12.5C17.125 12.2239 16.9011 12 16.625 12Z" fill="#95C7BB"/>
<path id="Vector_7" d="M16.625 16H13.625C13.3489 16 13.125 16.2239 13.125 16.5V17.5C13.125 17.7761 13.3489 18 13.625 18H16.625C16.9011 18 17.125 17.7761 17.125 17.5V16.5C17.125 16.2239 16.9011 16 16.625 16Z" fill="#95C7BB"/>
</g>
</g>
</svg>
