<svg width="20" height="20" viewBox="0 0 20 20" fill="none" xmlns="http://www.w3.org/2000/svg">
<g id="fluent:engine-20-filled">
<path id="Vector" d="M7.5 2.5C7.63261 2.5 7.75979 2.55268 7.85355 2.64645C7.94732 2.74021 8 2.86739 8 3V4H10V3C10 2.86739 10.0527 2.74021 10.1464 2.64645C10.2402 2.55268 10.3674 2.5 10.5 2.5C10.6326 2.5 10.7598 2.55268 10.8536 2.64645C10.9473 2.74021 11 2.86739 11 3V4H13.191C13.3767 4.0001 13.5586 4.05188 13.7165 4.14955C13.8744 4.24722 14.002 4.38692 14.085 4.553L14.81 6H16C16.5304 6 17.0391 6.21071 17.4142 6.58579C17.7893 6.96086 18 7.46957 18 8V13C18 13.5304 17.7893 14.0391 17.4142 14.4142C17.0391 14.7893 16.5304 15 16 15H14.809L14.085 16.447C14.002 16.6131 13.8744 16.7528 13.7165 16.8504C13.5586 16.9481 13.3767 16.9999 13.191 17H7.707C7.4418 16.9999 7.18749 16.8946 7 16.707L4.586 14.293C4.2109 13.918 4.00011 13.4094 4 12.879V10H3V12.5C3 12.6326 2.94732 12.7598 2.85355 12.8536C2.75979 12.9473 2.63261 13 2.5 13C2.36739 13 2.24021 12.9473 2.14645 12.8536C2.05268 12.7598 2 12.6326 2 12.5V6.5C2 6.36739 2.05268 6.24021 2.14645 6.14645C2.24021 6.05268 2.36739 6 2.5 6C2.63261 6 2.75979 6.05268 2.85355 6.14645C2.94732 6.24021 3 6.36739 3 6.5V9H4V6C4 5.46957 4.21071 4.96086 4.58579 4.58579C4.96086 4.21071 5.46957 4 6 4H7V3C7 2.86739 7.05268 2.74021 7.14645 2.64645C7.24021 2.55268 7.36739 2.5 7.5 2.5ZM7.5 7C7.36739 7 7.24021 7.05268 7.14645 7.14645C7.05268 7.24021 7 7.36739 7 7.5V10C7 10.5304 7.21071 11.0391 7.58579 11.4142C7.96086 11.7893 8.46957 12 9 12H14.5C14.6326 12 14.7598 11.9473 14.8536 11.8536C14.9473 11.7598 15 11.6326 15 11.5C15 11.3674 14.9473 11.2402 14.8536 11.1464C14.7598 11.0527 14.6326 11 14.5 11H11V7.5C11 7.36739 10.9473 7.24021 10.8536 7.14645C10.7598 7.05268 10.6326 7 10.5 7C10.3674 7 10.2402 7.05268 10.1464 7.14645C10.0527 7.24021 10 7.36739 10 7.5V11H9C8.73478 11 8.48043 10.8946 8.29289 10.7071C8.10536 10.5196 8 10.2652 8 10V7.5C8 7.36739 7.94732 7.24021 7.85355 7.14645C7.75979 7.05268 7.63261 7 7.5 7Z" fill="black"/>
</g>
</svg>
