<svg width="25" height="24" viewBox="0 0 25 24" fill="none" xmlns="http://www.w3.org/2000/svg">
<g id="Frame" clip-path="url(#clip0_5_157)">
<g id="Group">
<path id="Vector" d="M16.0235 9.38953C16.0235 9.38953 14.4085 13.9405 13.6415 14.735C13.2713 15.1084 12.7688 15.3209 12.243 15.3266C11.7172 15.3323 11.2103 15.1306 10.8321 14.7653C10.4538 14.4 10.2347 13.9005 10.222 13.3748C10.2094 12.8491 10.4043 12.3396 10.7645 11.9565C11.5315 11.1615 16.0235 9.38953 16.0235 9.38953Z" fill="#D9B17A" stroke="#D9B17A" stroke-width="2" stroke-linejoin="round"/>
<path id="Vector_2" d="M20.3 19.425C21.2763 18.4509 22.0506 17.2935 22.5783 16.0193C23.106 14.7451 23.3767 13.3792 23.375 12C23.375 6.201 18.674 1.5 12.875 1.5C7.076 1.5 2.375 6.201 2.375 12C2.375 14.8995 3.55 17.5245 5.45 19.425M12.875 2V4M20.2975 5.571L18.7435 6.8295M22.136 13.6165L20.1875 13.1665M3.6135 13.6165L5.5625 13.1665M5.4525 5.571L7.0065 6.8295" stroke="#D9B17A" stroke-width="2" stroke-linecap="round" stroke-linejoin="round"/>
</g>
</g>
<defs>
<clipPath id="clip0_5_157">
<rect width="24" height="24" fill="white" transform="translate(0.875)"/>
</clipPath>
</defs>
</svg>
