<svg width="25" height="24" viewBox="0 0 25 24" fill="none" xmlns="http://www.w3.org/2000/svg">
<g id="bx:money">
<path id="Vector" d="M21.375 4H3.375C3.10978 4 2.85543 4.10536 2.66789 4.29289C2.48036 4.48043 2.375 4.73478 2.375 5V19C2.375 19.2652 2.48036 19.5196 2.66789 19.7071C2.85543 19.8946 3.10978 20 3.375 20H21.375C21.6402 20 21.8946 19.8946 22.0821 19.7071C22.2696 19.5196 22.375 19.2652 22.375 19V5C22.375 4.73478 22.2696 4.48043 22.0821 4.29289C21.8946 4.10536 21.6402 4 21.375 4ZM20.375 15C19.5794 15 18.8163 15.3161 18.2537 15.8787C17.6911 16.4413 17.375 17.2044 17.375 18H7.375C7.375 17.2044 7.05893 16.4413 6.49632 15.8787C5.93371 15.3161 5.17065 15 4.375 15V9C5.17065 9 5.93371 8.68393 6.49632 8.12132C7.05893 7.55871 7.375 6.79565 7.375 6H17.375C17.375 6.79565 17.6911 7.55871 18.2537 8.12132C18.8163 8.68393 19.5794 9 20.375 9V15Z" fill="#5D7491"/>
<path id="Vector_2" d="M12.375 8C10.169 8 8.375 9.794 8.375 12C8.375 14.206 10.169 16 12.375 16C14.581 16 16.375 14.206 16.375 12C16.375 9.794 14.581 8 12.375 8ZM12.375 14C11.272 14 10.375 13.103 10.375 12C10.375 10.897 11.272 10 12.375 10C13.478 10 14.375 10.897 14.375 12C14.375 13.103 13.478 14 12.375 14Z" fill="#5D7491"/>
</g>
</svg>
