<svg width="33" height="32" viewBox="0 0 33 32" fill="none" xmlns="http://www.w3.org/2000/svg">
<g id="engine-motor-svgrepo-com 1" clip-path="url(#clip0_7_804)">
<g id="Group">
<path id="Vector" d="M12.2144 27.3514L12.2085 27.3451L12.2024 27.339L9.16069 24.2999L9.01427 24.1536H8.80729H6.71354C6.25791 24.1536 5.88281 23.7785 5.88281 23.3229V21.0573V20.5573H5.38281H4.11458H3.61458V21.0573V23.7083C3.61458 23.9973 3.3749 24.237 3.08594 24.237H1.52865C1.23968 24.237 1 23.9973 1 23.7083V14.7239C1 14.435 1.23968 14.1953 1.52865 14.1953H3.08594C3.3749 14.1953 3.61458 14.435 3.61458 14.7239V17.375V17.875H4.11458H5.38281H5.88281V17.375V14.9375C5.88281 14.4819 6.25791 14.1068 6.71354 14.1068H8.9375H9.1536L9.30167 13.9494L12.4262 10.6281C12.6587 10.4347 12.993 10.339 13.4741 10.3589L13.4844 10.3594H13.4948H26.4161C26.7468 10.4007 26.9218 10.5185 27.0225 10.6747L27.0246 10.6778C27.0931 10.7823 27.1063 10.8369 27.1126 10.8835C27.117 10.9155 27.1191 10.9557 27.1192 11.0191C27.1193 11.0508 27.1188 11.0845 27.1183 11.1252C27.1178 11.1647 27.1172 11.2095 27.1172 11.2578V17.375V17.875H27.6172H28.8854H29.3854V17.375V14.7239C29.3854 14.435 29.6251 14.1953 29.9141 14.1953H31.4714C31.7603 14.1953 32 14.435 32 14.7239V23.7083C32 23.9973 31.7603 24.237 31.4714 24.237H29.9141C29.6251 24.237 29.3854 23.9973 29.3854 23.7083V21.0573V20.5573H28.8854H27.6172H27.1172V21.0573V21.2969C27.1172 21.3222 27.1172 21.3468 27.1172 21.3708C27.1174 21.7042 27.1175 21.9159 27.0798 22.1137C27.0442 22.3005 26.9714 22.4837 26.7887 22.721L26.7882 22.7216C26.7187 22.8122 26.6412 22.898 26.556 22.977L26.5558 22.9769L26.546 22.9865L21.9028 27.5334L21.8914 27.5445L21.8808 27.5563C21.7668 27.6831 21.5632 27.7919 21.191 27.8151H13.3006C12.8262 27.7921 12.4779 27.6336 12.2144 27.3514ZM18.9839 16.5015L20.6859 13.7444L21.1567 12.9818H20.2604H16.5286H16.2072L16.0738 13.2741L13.3446 19.2533L13.0527 19.8928L13.7526 19.9587L16.4036 20.2083L14.4902 25.5555L15.3451 26.044L22.3347 17.6533L22.9299 16.9388L22.0056 16.8364L18.9839 16.5015ZM20.3698 6.79686H19.8698V7.29686V8.10676H17.1875V7.29686V6.79686H16.6875H14.0365C13.7475 6.79686 13.5078 6.55718 13.5078 6.26822V4.71093C13.5078 4.42197 13.7475 4.18228 14.0365 4.18228H23.0208C23.3098 4.18228 23.5495 4.42196 23.5495 4.71093V6.26822C23.5495 6.55718 23.3098 6.79686 23.0208 6.79686H20.3698Z" stroke="#718FB3"/>
</g>
</g>
<defs>
<clipPath id="clip0_7_804">
<rect width="32" height="32" fill="white" transform="translate(0.5)"/>
</clipPath>
</defs>
</svg>
