<svg width="24" height="24" viewBox="0 0 24 24" fill="none" xmlns="http://www.w3.org/2000/svg">
<g id="hugeicons:ai-security-02">
<g id="Group">
<path id="Vector" d="M11.998 2C9.14799 2 7.30099 4.019 5.11599 4.755C4.22799 5.055 3.78299 5.204 3.60399 5.415C3.42399 5.625 3.37099 5.934 3.26599 6.55C2.13899 13.146 4.60199 19.244 10.475 21.618C11.106 21.873 11.422 22 12.001 22C12.58 22 12.897 21.872 13.528 21.617C19.401 19.244 21.861 13.146 20.734 6.55C20.628 5.934 20.576 5.625 20.396 5.414C20.216 5.203 19.772 5.054 18.884 4.755C16.698 4.019 14.848 2 11.998 2Z" stroke="white" stroke-linecap="round" stroke-linejoin="round"/>
<path id="Vector_2" d="M18 8.53534L10.6667 16L7 12.2677L7.52593 11.7323L10.6667 14.9369L17.4741 8L18 8.53534Z" fill="white"/>
</g>
</g>
</svg>
