<svg width="25" height="24" viewBox="0 0 25 24" fill="none" xmlns="http://www.w3.org/2000/svg">
<g id="hugeicons:ai-security-02">
<g id="Group">
<path id="Vector" d="M12.623 2C9.77305 2 7.92605 4.019 5.74105 4.755C4.85305 5.055 4.40805 5.204 4.22905 5.415C4.04905 5.625 3.99605 5.934 3.89105 6.55C2.76405 13.146 5.22705 19.244 11.1 21.618C11.731 21.873 12.047 22 12.626 22C13.205 22 13.522 21.872 14.153 21.617C20.026 19.244 22.486 13.146 21.359 6.55C21.253 5.934 21.201 5.625 21.021 5.414C20.841 5.203 20.397 5.054 19.509 4.755C17.323 4.019 15.473 2 12.623 2Z" stroke="black" stroke-linecap="round" stroke-linejoin="round"/>
<path id="Vector_2" d="M18.625 8.53534L11.2917 16L7.625 12.2677L8.15093 11.7323L11.2917 14.9369L18.0991 8L18.625 8.53534Z" fill="black"/>
</g>
</g>
</svg>
